<svg width="310" height="210" viewBox="0 0 310 210" fill="none" xmlns="http://www.w3.org/2000/svg">
<g filter="url(#filter0_dddd_994_17805)">
<g clip-path="url(#clip0_994_17805)">
<path d="M305 1H5V201H305V1Z" fill="#DDDDDD"/>
<path d="M68.68 95.0602L66.08 94.6002C66.28 93.2135 66.6667 91.9969 67.24 90.9502C67.8133 89.9035 68.53 89.0302 69.39 88.3302C70.25 87.6302 71.2367 87.1035 72.35 86.7502C73.4633 86.3969 74.66 86.2202 75.94 86.2202C77.2733 86.2202 78.4767 86.4102 79.55 86.7902C80.6233 87.1702 81.54 87.6969 82.3 88.3702C83.06 89.0435 83.6433 89.8335 84.05 90.7402C84.4567 91.6469 84.66 92.6269 84.66 93.6802C84.66 94.6002 84.5567 95.4102 84.35 96.1102C84.1433 96.8102 83.8467 97.4202 83.46 97.9402C83.0733 98.4602 82.5933 98.9002 82.02 99.2602C81.4467 99.6202 80.8 99.9202 80.08 100.16C81.8133 100.707 83.1067 101.54 83.96 102.66C84.8133 103.78 85.24 105.187 85.24 106.88C85.24 108.32 84.9733 109.594 84.44 110.7C83.9067 111.807 83.1867 112.737 82.28 113.49C81.3733 114.244 80.3233 114.814 79.13 115.2C77.9367 115.587 76.6733 115.78 75.34 115.78C73.8867 115.78 72.62 115.614 71.54 115.28C70.46 114.947 69.52 114.454 68.72 113.8C67.92 113.147 67.24 112.347 66.68 111.4C66.12 110.454 65.64 109.36 65.24 108.12L67.42 107.22C67.9933 106.98 68.53 106.917 69.03 107.03C69.53 107.144 69.8933 107.414 70.12 107.84C70.36 108.307 70.6233 108.767 70.91 109.22C71.1967 109.674 71.54 110.077 71.94 110.43C72.34 110.784 72.81 111.07 73.35 111.29C73.89 111.51 74.5333 111.62 75.28 111.62C76.12 111.62 76.8533 111.484 77.48 111.21C78.1067 110.937 78.63 110.58 79.05 110.14C79.47 109.7 79.7833 109.21 79.99 108.67C80.1967 108.13 80.3 107.587 80.3 107.04C80.3 106.347 80.2267 105.717 80.08 105.15C79.9333 104.584 79.6267 104.1 79.16 103.7C78.6933 103.3 78.0233 102.987 77.15 102.76C76.2767 102.534 75.1067 102.42 73.64 102.42V98.9002C74.8533 98.8869 75.86 98.7735 76.66 98.5602C77.46 98.3469 78.0967 98.0502 78.57 97.6702C79.0433 97.2902 79.3733 96.8336 79.56 96.3002C79.7467 95.7669 79.84 95.1802 79.84 94.5402C79.84 93.1802 79.46 92.1469 78.7 91.4402C77.94 90.7335 76.9267 90.3802 75.66 90.3802C75.0733 90.3802 74.5333 90.4635 74.04 90.6302C73.5467 90.7969 73.1033 91.0302 72.71 91.3302C72.3167 91.6302 71.9867 91.9802 71.72 92.3802C71.4533 92.7802 71.2533 93.2202 71.12 93.7002C70.8933 94.3135 70.5967 94.7202 70.23 94.9202C69.8633 95.1202 69.3467 95.1669 68.68 95.0602ZM109.32 101C109.32 103.52 109.05 105.71 108.51 107.57C107.97 109.43 107.223 110.967 106.27 112.18C105.317 113.394 104.19 114.297 102.89 114.89C101.59 115.484 100.187 115.78 98.68 115.78C97.1733 115.78 95.7767 115.484 94.49 114.89C93.2033 114.297 92.0867 113.394 91.14 112.18C90.1933 110.967 89.4533 109.43 88.92 107.57C88.3867 105.71 88.12 103.52 88.12 101C88.12 98.4669 88.3867 96.2735 88.92 94.4202C89.4533 92.5669 90.1933 91.0335 91.14 89.8202C92.0867 88.6069 93.2033 87.7035 94.49 87.1102C95.7767 86.5169 97.1733 86.2202 98.68 86.2202C100.187 86.2202 101.59 86.5169 102.89 87.1102C104.19 87.7035 105.317 88.6069 106.27 89.8202C107.223 91.0335 107.97 92.5669 108.51 94.4202C109.05 96.2735 109.32 98.4669 109.32 101ZM104.22 101C104.22 98.9069 104.067 97.1735 103.76 95.8002C103.453 94.4269 103.043 93.3335 102.53 92.5202C102.017 91.7069 101.427 91.1369 100.76 90.8102C100.093 90.4835 99.4 90.3202 98.68 90.3202C97.9733 90.3202 97.29 90.4835 96.63 90.8102C95.97 91.1369 95.3867 91.7069 94.88 92.5202C94.3733 93.3335 93.97 94.4269 93.67 95.8002C93.37 97.1735 93.22 98.9069 93.22 101C93.22 103.094 93.37 104.827 93.67 106.2C93.97 107.574 94.3733 108.667 94.88 109.48C95.3867 110.294 95.97 110.864 96.63 111.19C97.29 111.517 97.9733 111.68 98.68 111.68C99.4 111.68 100.093 111.517 100.76 111.19C101.427 110.864 102.017 110.294 102.53 109.48C103.043 108.667 103.453 107.574 103.76 106.2C104.067 104.827 104.22 103.094 104.22 101ZM132.52 101C132.52 103.52 132.25 105.71 131.71 107.57C131.17 109.43 130.423 110.967 129.47 112.18C128.517 113.394 127.39 114.297 126.09 114.89C124.79 115.484 123.387 115.78 121.88 115.78C120.373 115.78 118.977 115.484 117.69 114.89C116.403 114.297 115.287 113.394 114.34 112.18C113.393 110.967 112.653 109.43 112.12 107.57C111.587 105.71 111.32 103.52 111.32 101C111.32 98.4669 111.587 96.2735 112.12 94.4202C112.653 92.5669 113.393 91.0335 114.34 89.8202C115.287 88.6069 116.403 87.7035 117.69 87.1102C118.977 86.5169 120.373 86.2202 121.88 86.2202C123.387 86.2202 124.79 86.5169 126.09 87.1102C127.39 87.7035 128.517 88.6069 129.47 89.8202C130.423 91.0335 131.17 92.5669 131.71 94.4202C132.25 96.2735 132.52 98.4669 132.52 101ZM127.42 101C127.42 98.9069 127.267 97.1735 126.96 95.8002C126.653 94.4269 126.243 93.3335 125.73 92.5202C125.217 91.7069 124.627 91.1369 123.96 90.8102C123.293 90.4835 122.6 90.3202 121.88 90.3202C121.173 90.3202 120.49 90.4835 119.83 90.8102C119.17 91.1369 118.587 91.7069 118.08 92.5202C117.573 93.3335 117.17 94.4269 116.87 95.8002C116.57 97.1735 116.42 98.9069 116.42 101C116.42 103.094 116.57 104.827 116.87 106.2C117.17 107.574 117.573 108.667 118.08 109.48C118.587 110.294 119.17 110.864 119.83 111.19C120.49 111.517 121.173 111.68 121.88 111.68C122.6 111.68 123.293 111.517 123.96 111.19C124.627 110.864 125.217 110.294 125.73 109.48C126.243 108.667 126.653 107.574 126.96 106.2C127.267 104.827 127.42 103.094 127.42 101ZM164.28 108.84L161.66 111.42L154.88 104.64L148.04 111.46L145.42 108.88L152.26 102.02L145.74 95.5002L148.34 92.9002L154.86 99.4202L161.34 92.9402L163.98 95.5402L157.48 102.04L164.28 108.84ZM188.36 110.86H195.78C196.313 110.86 196.737 111.01 197.05 111.31C197.363 111.61 197.52 112.007 197.52 112.5V115.46H177.68V113.82C177.68 113.487 177.75 113.137 177.89 112.77C178.03 112.404 178.253 112.074 178.56 111.78L187.34 102.98C188.073 102.234 188.73 101.52 189.31 100.84C189.89 100.16 190.373 99.4869 190.76 98.8202C191.147 98.1535 191.443 97.4769 191.65 96.7902C191.857 96.1035 191.96 95.3802 191.96 94.6202C191.96 93.9269 191.86 93.3169 191.66 92.7902C191.46 92.2635 191.177 91.8202 190.81 91.4602C190.443 91.1002 190.003 90.8302 189.49 90.6502C188.977 90.4702 188.4 90.3802 187.76 90.3802C187.173 90.3802 186.63 90.4635 186.13 90.6302C185.63 90.7969 185.187 91.0302 184.8 91.3302C184.413 91.6302 184.087 91.9802 183.82 92.3802C183.553 92.7802 183.353 93.2202 183.22 93.7002C182.993 94.3135 182.7 94.7202 182.34 94.9202C181.98 95.1202 181.46 95.1669 180.78 95.0602L178.18 94.6002C178.38 93.2135 178.767 91.9969 179.34 90.9502C179.913 89.9035 180.63 89.0302 181.49 88.3302C182.35 87.6302 183.337 87.1035 184.45 86.7502C185.563 86.3969 186.76 86.2202 188.04 86.2202C189.373 86.2202 190.593 86.4169 191.7 86.8102C192.807 87.2035 193.753 87.7602 194.54 88.4802C195.327 89.2002 195.94 90.0669 196.38 91.0802C196.82 92.0935 197.04 93.2202 197.04 94.4602C197.04 95.5269 196.883 96.5135 196.57 97.4202C196.257 98.3269 195.837 99.1935 195.31 100.02C194.783 100.847 194.167 101.647 193.46 102.42C192.753 103.194 192.013 103.98 191.24 104.78L184.72 111.44C185.347 111.254 185.97 111.11 186.59 111.01C187.21 110.91 187.8 110.86 188.36 110.86ZM221.56 101C221.56 103.52 221.29 105.71 220.75 107.57C220.21 109.43 219.463 110.967 218.51 112.18C217.557 113.394 216.43 114.297 215.13 114.89C213.83 115.484 212.427 115.78 210.92 115.78C209.413 115.78 208.017 115.484 206.73 114.89C205.443 114.297 204.327 113.394 203.38 112.18C202.433 110.967 201.693 109.43 201.16 107.57C200.627 105.71 200.36 103.52 200.36 101C200.36 98.4669 200.627 96.2735 201.16 94.4202C201.693 92.5669 202.433 91.0335 203.38 89.8202C204.327 88.6069 205.443 87.7035 206.73 87.1102C208.017 86.5169 209.413 86.2202 210.92 86.2202C212.427 86.2202 213.83 86.5169 215.13 87.1102C216.43 87.7035 217.557 88.6069 218.51 89.8202C219.463 91.0335 220.21 92.5669 220.75 94.4202C221.29 96.2735 221.56 98.4669 221.56 101ZM216.46 101C216.46 98.9069 216.307 97.1735 216 95.8002C215.693 94.4269 215.283 93.3335 214.77 92.5202C214.257 91.7069 213.667 91.1369 213 90.8102C212.333 90.4835 211.64 90.3202 210.92 90.3202C210.213 90.3202 209.53 90.4835 208.87 90.8102C208.21 91.1369 207.627 91.7069 207.12 92.5202C206.613 93.3335 206.21 94.4269 205.91 95.8002C205.61 97.1735 205.46 98.9069 205.46 101C205.46 103.094 205.61 104.827 205.91 106.2C206.21 107.574 206.613 108.667 207.12 109.48C207.627 110.294 208.21 110.864 208.87 111.19C209.53 111.517 210.213 111.68 210.92 111.68C211.64 111.68 212.333 111.517 213 111.19C213.667 110.864 214.257 110.294 214.77 109.48C215.283 108.667 215.693 107.574 216 106.2C216.307 104.827 216.46 103.094 216.46 101ZM244.76 101C244.76 103.52 244.49 105.71 243.95 107.57C243.41 109.43 242.663 110.967 241.71 112.18C240.757 113.394 239.63 114.297 238.33 114.89C237.03 115.484 235.627 115.78 234.12 115.78C232.613 115.78 231.217 115.484 229.93 114.89C228.643 114.297 227.527 113.394 226.58 112.18C225.633 110.967 224.893 109.43 224.36 107.57C223.827 105.71 223.56 103.52 223.56 101C223.56 98.4669 223.827 96.2735 224.36 94.4202C224.893 92.5669 225.633 91.0335 226.58 89.8202C227.527 88.6069 228.643 87.7035 229.93 87.1102C231.217 86.5169 232.613 86.2202 234.12 86.2202C235.627 86.2202 237.03 86.5169 238.33 87.1102C239.63 87.7035 240.757 88.6069 241.71 89.8202C242.663 91.0335 243.41 92.5669 243.95 94.4202C244.49 96.2735 244.76 98.4669 244.76 101ZM239.66 101C239.66 98.9069 239.507 97.1735 239.2 95.8002C238.893 94.4269 238.483 93.3335 237.97 92.5202C237.457 91.7069 236.867 91.1369 236.2 90.8102C235.533 90.4835 234.84 90.3202 234.12 90.3202C233.413 90.3202 232.73 90.4835 232.07 90.8102C231.41 91.1369 230.827 91.7069 230.32 92.5202C229.813 93.3335 229.41 94.4269 229.11 95.8002C228.81 97.1735 228.66 98.9069 228.66 101C228.66 103.094 228.81 104.827 229.11 106.2C229.41 107.574 229.813 108.667 230.32 109.48C230.827 110.294 231.41 110.864 232.07 111.19C232.73 111.517 233.413 111.68 234.12 111.68C234.84 111.68 235.533 111.517 236.2 111.19C236.867 110.864 237.457 110.294 237.97 109.48C238.483 108.667 238.893 107.574 239.2 106.2C239.507 104.827 239.66 103.094 239.66 101Z" fill="#999999"/>
</g>
</g>
<defs>
<filter id="filter0_dddd_994_17805" x="0" y="0" width="310" height="210" filterUnits="userSpaceOnUse" color-interpolation-filters="sRGB">
<feFlood flood-opacity="0" result="BackgroundImageFix"/>
<feColorMatrix in="SourceAlpha" type="matrix" values="0 0 0 0 0 0 0 0 0 0 0 0 0 0 0 0 0 0 127 0" result="hardAlpha"/>
<feOffset/>
<feColorMatrix type="matrix" values="0 0 0 0 0 0 0 0 0 0 0 0 0 0 0 0 0 0 1 0"/>
<feBlend mode="normal" in2="BackgroundImageFix" result="effect1_dropShadow_994_17805"/>
<feColorMatrix in="SourceAlpha" type="matrix" values="0 0 0 0 0 0 0 0 0 0 0 0 0 0 0 0 0 0 127 0" result="hardAlpha"/>
<feOffset/>
<feColorMatrix type="matrix" values="0 0 0 0 0 0 0 0 0 0 0 0 0 0 0 0 0 0 1 0"/>
<feBlend mode="normal" in2="effect1_dropShadow_994_17805" result="effect2_dropShadow_994_17805"/>
<feColorMatrix in="SourceAlpha" type="matrix" values="0 0 0 0 0 0 0 0 0 0 0 0 0 0 0 0 0 0 127 0" result="hardAlpha"/>
<feMorphology radius="1" operator="erode" in="SourceAlpha" result="effect3_dropShadow_994_17805"/>
<feOffset dy="4"/>
<feGaussianBlur stdDeviation="3"/>
<feColorMatrix type="matrix" values="0 0 0 0 0 0 0 0 0 0 0 0 0 0 0 0 0 0 0.1 0"/>
<feBlend mode="normal" in2="effect2_dropShadow_994_17805" result="effect3_dropShadow_994_17805"/>
<feColorMatrix in="SourceAlpha" type="matrix" values="0 0 0 0 0 0 0 0 0 0 0 0 0 0 0 0 0 0 127 0" result="hardAlpha"/>
<feMorphology radius="2" operator="erode" in="SourceAlpha" result="effect4_dropShadow_994_17805"/>
<feOffset dy="2"/>
<feGaussianBlur stdDeviation="2"/>
<feColorMatrix type="matrix" values="0 0 0 0 0 0 0 0 0 0 0 0 0 0 0 0 0 0 0.1 0"/>
<feBlend mode="normal" in2="effect3_dropShadow_994_17805" result="effect4_dropShadow_994_17805"/>
<feBlend mode="normal" in="SourceGraphic" in2="effect4_dropShadow_994_17805" result="shape"/>
</filter>
<clipPath id="clip0_994_17805">
<path d="M5 5C5 2.79086 6.79086 1 9 1H301C303.209 1 305 2.79086 305 5V197C305 199.209 303.209 201 301 201H9C6.79086 201 5 199.209 5 197V5Z" fill="white"/>
</clipPath>
</defs>
</svg>
