<svg width="600" height="300" viewBox="0 0 600 300" fill="none" xmlns="http://www.w3.org/2000/svg">
<g clip-path="url(#clip0_994_17813)">
<path d="M600 0H0V300H600V0Z" fill="#DDDDDD"/>
<path d="M155.52 121.08L138.36 142.08L136.36 144.56C137.48 144 138.687 143.567 139.98 143.26C141.273 142.953 142.667 142.8 144.16 142.8C146.347 142.8 148.473 143.16 150.54 143.88C152.607 144.6 154.427 145.687 156 147.14C157.573 148.593 158.84 150.4 159.8 152.56C160.76 154.72 161.24 157.24 161.24 160.12C161.24 162.813 160.747 165.34 159.76 167.7C158.773 170.06 157.387 172.12 155.6 173.88C153.813 175.64 151.66 177.027 149.14 178.04C146.62 179.053 143.84 179.56 140.8 179.56C137.707 179.56 134.933 179.067 132.48 178.08C130.027 177.093 127.933 175.713 126.2 173.94C124.467 172.167 123.14 170.033 122.22 167.54C121.3 165.047 120.84 162.28 120.84 159.24C120.84 156.52 121.393 153.727 122.5 150.86C123.607 147.993 125.32 145.013 127.64 141.92L141.44 123.4C141.92 122.76 142.62 122.213 143.54 121.76C144.46 121.307 145.52 121.08 146.72 121.08H155.52ZM140.6 171.48C142.173 171.48 143.62 171.213 144.94 170.68C146.26 170.147 147.393 169.4 148.34 168.44C149.287 167.48 150.027 166.353 150.56 165.06C151.093 163.767 151.36 162.36 151.36 160.84C151.36 159.187 151.107 157.7 150.6 156.38C150.093 155.06 149.373 153.94 148.44 153.02C147.507 152.1 146.387 151.4 145.08 150.92C143.773 150.44 142.333 150.2 140.76 150.2C139.187 150.2 137.76 150.467 136.48 151C135.2 151.533 134.107 152.273 133.2 153.22C132.293 154.167 131.587 155.287 131.08 156.58C130.573 157.873 130.32 159.267 130.32 160.76C130.32 162.36 130.54 163.82 130.98 165.14C131.42 166.46 132.073 167.587 132.94 168.52C133.807 169.453 134.88 170.18 136.16 170.7C137.44 171.22 138.92 171.48 140.6 171.48ZM208.28 150C208.28 155.04 207.74 159.42 206.66 163.14C205.58 166.86 204.087 169.933 202.18 172.36C200.273 174.787 198.02 176.593 195.42 177.78C192.82 178.967 190.013 179.56 187 179.56C183.987 179.56 181.193 178.967 178.62 177.78C176.047 176.593 173.813 174.787 171.92 172.36C170.027 169.933 168.547 166.86 167.48 163.14C166.413 159.42 165.88 155.04 165.88 150C165.88 144.933 166.413 140.547 167.48 136.84C168.547 133.133 170.027 130.067 171.92 127.64C173.813 125.213 176.047 123.407 178.62 122.22C181.193 121.033 183.987 120.44 187 120.44C190.013 120.44 192.82 121.033 195.42 122.22C198.02 123.407 200.273 125.213 202.18 127.64C204.087 130.067 205.58 133.133 206.66 136.84C207.74 140.547 208.28 144.933 208.28 150ZM198.08 150C198.08 145.813 197.773 142.347 197.16 139.6C196.547 136.853 195.727 134.667 194.7 133.04C193.673 131.413 192.493 130.273 191.16 129.62C189.827 128.967 188.44 128.64 187 128.64C185.587 128.64 184.22 128.967 182.9 129.62C181.58 130.273 180.413 131.413 179.4 133.04C178.387 134.667 177.58 136.853 176.98 139.6C176.38 142.347 176.08 145.813 176.08 150C176.08 154.187 176.38 157.653 176.98 160.4C177.58 163.147 178.387 165.333 179.4 166.96C180.413 168.587 181.58 169.727 182.9 170.38C184.22 171.033 185.587 171.36 187 171.36C188.44 171.36 189.827 171.033 191.16 170.38C192.493 169.727 193.673 168.587 194.7 166.96C195.727 165.333 196.547 163.147 197.16 160.4C197.773 157.653 198.08 154.187 198.08 150ZM254.68 150C254.68 155.04 254.14 159.42 253.06 163.14C251.98 166.86 250.487 169.933 248.58 172.36C246.673 174.787 244.42 176.593 241.82 177.78C239.22 178.967 236.413 179.56 233.4 179.56C230.387 179.56 227.593 178.967 225.02 177.78C222.447 176.593 220.213 174.787 218.32 172.36C216.427 169.933 214.947 166.86 213.88 163.14C212.813 159.42 212.28 155.04 212.28 150C212.28 144.933 212.813 140.547 213.88 136.84C214.947 133.133 216.427 130.067 218.32 127.64C220.213 125.213 222.447 123.407 225.02 122.22C227.593 121.033 230.387 120.44 233.4 120.44C236.413 120.44 239.22 121.033 241.82 122.22C244.42 123.407 246.673 125.213 248.58 127.64C250.487 130.067 251.98 133.133 253.06 136.84C254.14 140.547 254.68 144.933 254.68 150ZM244.48 150C244.48 145.813 244.173 142.347 243.56 139.6C242.947 136.853 242.127 134.667 241.1 133.04C240.073 131.413 238.893 130.273 237.56 129.62C236.227 128.967 234.84 128.64 233.4 128.64C231.987 128.64 230.62 128.967 229.3 129.62C227.98 130.273 226.813 131.413 225.8 133.04C224.787 134.667 223.98 136.853 223.38 139.6C222.78 142.347 222.48 145.813 222.48 150C222.48 154.187 222.78 157.653 223.38 160.4C223.98 163.147 224.787 165.333 225.8 166.96C226.813 168.587 227.98 169.727 229.3 170.38C230.62 171.033 231.987 171.36 233.4 171.36C234.84 171.36 236.227 171.033 237.56 170.38C238.893 169.727 240.073 168.587 241.1 166.96C242.127 165.333 242.947 163.147 243.56 160.4C244.173 157.653 244.48 154.187 244.48 150ZM318.2 165.68L312.96 170.84L299.4 157.28L285.72 170.92L280.48 165.76L294.16 152.04L281.12 139L286.32 133.8L299.36 146.84L312.32 133.88L317.6 139.08L304.6 152.08L318.2 165.68ZM351.48 138.12L346.28 137.2C346.68 134.427 347.453 131.993 348.6 129.9C349.747 127.807 351.18 126.06 352.9 124.66C354.62 123.26 356.593 122.207 358.82 121.5C361.047 120.793 363.44 120.44 366 120.44C368.667 120.44 371.073 120.82 373.22 121.58C375.367 122.34 377.2 123.393 378.72 124.74C380.24 126.087 381.407 127.667 382.22 129.48C383.033 131.293 383.44 133.253 383.44 135.36C383.44 137.2 383.233 138.82 382.82 140.22C382.407 141.62 381.813 142.84 381.04 143.88C380.267 144.92 379.307 145.8 378.16 146.52C377.013 147.24 375.72 147.84 374.28 148.32C377.747 149.413 380.333 151.08 382.04 153.32C383.747 155.56 384.6 158.373 384.6 161.76C384.6 164.64 384.067 167.187 383 169.4C381.933 171.613 380.493 173.473 378.68 174.98C376.867 176.487 374.767 177.627 372.38 178.4C369.993 179.173 367.467 179.56 364.8 179.56C361.893 179.56 359.36 179.227 357.2 178.56C355.04 177.893 353.16 176.907 351.56 175.6C349.96 174.293 348.6 172.693 347.48 170.8C346.36 168.907 345.4 166.72 344.6 164.24L348.96 162.44C350.107 161.96 351.18 161.833 352.18 162.06C353.18 162.287 353.907 162.827 354.36 163.68C354.84 164.613 355.367 165.533 355.94 166.44C356.513 167.347 357.2 168.153 358 168.86C358.8 169.567 359.74 170.14 360.82 170.58C361.9 171.02 363.187 171.24 364.68 171.24C366.36 171.24 367.827 170.967 369.08 170.42C370.333 169.873 371.38 169.16 372.22 168.28C373.06 167.4 373.687 166.42 374.1 165.34C374.513 164.26 374.72 163.173 374.72 162.08C374.72 160.693 374.573 159.433 374.28 158.3C373.987 157.167 373.373 156.2 372.44 155.4C371.507 154.6 370.167 153.973 368.42 153.52C366.673 153.067 364.333 152.84 361.4 152.84V145.8C363.827 145.773 365.84 145.547 367.44 145.12C369.04 144.693 370.313 144.1 371.26 143.34C372.207 142.58 372.867 141.667 373.24 140.6C373.613 139.533 373.8 138.36 373.8 137.08C373.8 134.36 373.04 132.293 371.52 130.88C370 129.467 367.973 128.76 365.44 128.76C364.267 128.76 363.187 128.927 362.2 129.26C361.213 129.593 360.327 130.06 359.54 130.66C358.753 131.26 358.093 131.96 357.56 132.76C357.027 133.56 356.627 134.44 356.36 135.4C355.907 136.627 355.313 137.44 354.58 137.84C353.847 138.24 352.813 138.333 351.48 138.12ZM432.76 150C432.76 155.04 432.22 159.42 431.14 163.14C430.06 166.86 428.567 169.933 426.66 172.36C424.753 174.787 422.5 176.593 419.9 177.78C417.3 178.967 414.493 179.56 411.48 179.56C408.467 179.56 405.673 178.967 403.1 177.78C400.527 176.593 398.293 174.787 396.4 172.36C394.507 169.933 393.027 166.86 391.96 163.14C390.893 159.42 390.36 155.04 390.36 150C390.36 144.933 390.893 140.547 391.96 136.84C393.027 133.133 394.507 130.067 396.4 127.64C398.293 125.213 400.527 123.407 403.1 122.22C405.673 121.033 408.467 120.44 411.48 120.44C414.493 120.44 417.3 121.033 419.9 122.22C422.5 123.407 424.753 125.213 426.66 127.64C428.567 130.067 430.06 133.133 431.14 136.84C432.22 140.547 432.76 144.933 432.76 150ZM422.56 150C422.56 145.813 422.253 142.347 421.64 139.6C421.027 136.853 420.207 134.667 419.18 133.04C418.153 131.413 416.973 130.273 415.64 129.62C414.307 128.967 412.92 128.64 411.48 128.64C410.067 128.64 408.7 128.967 407.38 129.62C406.06 130.273 404.893 131.413 403.88 133.04C402.867 134.667 402.06 136.853 401.46 139.6C400.86 142.347 400.56 145.813 400.56 150C400.56 154.187 400.86 157.653 401.46 160.4C402.06 163.147 402.867 165.333 403.88 166.96C404.893 168.587 406.06 169.727 407.38 170.38C408.7 171.033 410.067 171.36 411.48 171.36C412.92 171.36 414.307 171.033 415.64 170.38C416.973 169.727 418.153 168.587 419.18 166.96C420.207 165.333 421.027 163.147 421.64 160.4C422.253 157.653 422.56 154.187 422.56 150ZM479.16 150C479.16 155.04 478.62 159.42 477.54 163.14C476.46 166.86 474.967 169.933 473.06 172.36C471.153 174.787 468.9 176.593 466.3 177.78C463.7 178.967 460.893 179.56 457.88 179.56C454.867 179.56 452.073 178.967 449.5 177.78C446.927 176.593 444.693 174.787 442.8 172.36C440.907 169.933 439.427 166.86 438.36 163.14C437.293 159.42 436.76 155.04 436.76 150C436.76 144.933 437.293 140.547 438.36 136.84C439.427 133.133 440.907 130.067 442.8 127.64C444.693 125.213 446.927 123.407 449.5 122.22C452.073 121.033 454.867 120.44 457.88 120.44C460.893 120.44 463.7 121.033 466.3 122.22C468.9 123.407 471.153 125.213 473.06 127.64C474.967 130.067 476.46 133.133 477.54 136.84C478.62 140.547 479.16 144.933 479.16 150ZM468.96 150C468.96 145.813 468.653 142.347 468.04 139.6C467.427 136.853 466.607 134.667 465.58 133.04C464.553 131.413 463.373 130.273 462.04 129.62C460.707 128.967 459.32 128.64 457.88 128.64C456.467 128.64 455.1 128.967 453.78 129.62C452.46 130.273 451.293 131.413 450.28 133.04C449.267 134.667 448.46 136.853 447.86 139.6C447.26 142.347 446.96 145.813 446.96 150C446.96 154.187 447.26 157.653 447.86 160.4C448.46 163.147 449.267 165.333 450.28 166.96C451.293 168.587 452.46 169.727 453.78 170.38C455.1 171.033 456.467 171.36 457.88 171.36C459.32 171.36 460.707 171.033 462.04 170.38C463.373 169.727 464.553 168.587 465.58 166.96C466.607 165.333 467.427 163.147 468.04 160.4C468.653 157.653 468.96 154.187 468.96 150Z" fill="#999999"/>
</g>
<defs>
<clipPath id="clip0_994_17813">
<rect width="600" height="300" fill="white"/>
</clipPath>
</defs>
</svg>
