<svg width="114" height="27" viewBox="0 0 114 27" fill="none" xmlns="http://www.w3.org/2000/svg">
<path d="M113.208 1.58203V24.9316C113.208 25.7344 112.52 26.3789 111.677 26.3789H104.601V16.2188H108.207L108.746 12.2578H104.595V9.72656C104.595 8.57812 104.929 7.79883 106.671 7.79883H108.889V4.25391C108.505 4.20703 107.191 4.0957 105.654 4.0957C102.457 4.0957 100.264 5.94141 100.264 9.33398V12.2578H96.6451V16.2188H100.264V26.3848H86.9788C86.1362 26.3848 85.4484 25.7344 85.4484 24.9375V1.58203C85.4484 0.785156 86.1362 0.134766 86.9788 0.134766H111.671C112.52 0.134766 113.208 0.785156 113.208 1.58203Z" fill="#ECECEC"/>
<path d="M67.7899 7.02543C67.8076 7.29191 67.8076 7.55846 67.8076 7.82494C67.8076 15.9531 62.0831 25.3186 51.6205 25.3186C48.3971 25.3186 45.4028 24.3096 42.884 22.5585C43.342 22.6155 43.7823 22.6346 44.2579 22.6346C46.9175 22.6346 49.3659 21.6638 51.321 20.0077C48.8199 19.9506 46.7238 18.1803 46.0016 15.7437C46.354 15.8008 46.7062 15.8389 47.0761 15.8389C47.5869 15.8389 48.0978 15.7627 48.5733 15.6295C45.9665 15.0584 44.0113 12.5838 44.0113 9.59523V9.51912C44.7686 9.97598 45.6494 10.2615 46.5829 10.2995C45.0505 9.19545 44.0465 7.31096 44.0465 5.17897C44.0465 4.03686 44.3283 2.9899 44.8215 2.07619C47.6221 5.80715 51.8318 8.24365 56.5523 8.5102C56.4642 8.05334 56.4114 7.5775 56.4114 7.1016C56.4114 3.71324 58.9478 0.953125 62.1006 0.953125C63.7387 0.953125 65.2182 1.69551 66.2575 2.89475C67.5433 2.62826 68.7762 2.11428 69.8683 1.40998C69.4455 2.83768 68.5472 4.03691 67.3672 4.79828C68.5121 4.6651 69.6217 4.32238 70.6433 3.84654C69.8684 5.06477 68.8996 6.14975 67.7899 7.02543Z" fill="#ECECEC"/>
<path d="M14.2055 6.39697C10.2647 6.39697 7.08599 9.40283 7.08599 13.1294C7.08599 16.8559 10.2647 19.8618 14.2055 19.8618C18.1464 19.8618 21.3251 16.8559 21.3251 13.1294C21.3251 9.40283 18.1464 6.39697 14.2055 6.39697ZM14.2055 17.5063C11.6589 17.5063 9.5769 15.5435 9.5769 13.1294C9.5769 10.7153 11.6527 8.75244 14.2055 8.75244C16.7584 8.75244 18.8342 10.7153 18.8342 13.1294C18.8342 15.5435 16.7522 17.5063 14.2055 17.5063ZM23.2769 6.12158C23.2769 6.99463 22.5333 7.69189 21.6163 7.69189C20.693 7.69189 19.9557 6.98877 19.9557 6.12158C19.9557 5.25439 20.6992 4.55127 21.6163 4.55127C22.5333 4.55127 23.2769 5.25439 23.2769 6.12158ZM27.9923 7.71533C27.8869 5.61181 27.3788 3.74853 25.7492 2.21338C24.1258 0.678222 22.1554 0.197754 19.9309 0.0922851C17.6383 -0.0307617 10.7666 -0.0307617 8.47396 0.0922851C6.25569 0.191894 4.28527 0.672363 2.65565 2.20752C1.02603 3.74267 0.524127 5.60595 0.412594 7.70947C0.282472 9.87744 0.282472 16.3755 0.412594 18.5434C0.517931 20.647 1.02603 22.5102 2.65565 24.0454C4.28527 25.5806 6.2495 26.061 8.47396 26.1665C10.7666 26.2895 17.6383 26.2895 19.9309 26.1665C22.1554 26.0669 24.1258 25.5864 25.7492 24.0454C27.3726 22.5102 27.8807 20.647 27.9923 18.5434C28.1224 16.3755 28.1224 9.8833 27.9923 7.71533ZM25.0304 20.8696C24.5471 22.0181 23.6115 22.9028 22.3908 23.3657C20.5629 24.0513 16.2255 23.8931 14.2055 23.8931C12.1855 23.8931 7.84194 24.0454 6.02023 23.3657C4.80576 22.9087 3.87012 22.0239 3.38061 20.8696C2.65565 19.1411 2.82295 15.0395 2.82295 13.1294C2.82295 11.2192 2.66185 7.11181 3.38061 5.38916C3.86392 4.24072 4.79956 3.35596 6.02023 2.89306C7.84814 2.20752 12.1855 2.36572 14.2055 2.36572C16.2255 2.36572 20.5691 2.21338 22.3908 2.89306C23.6053 3.3501 24.5409 4.23486 25.0304 5.38916C25.7554 7.11767 25.5881 11.2192 25.5881 13.1294C25.5881 15.0395 25.7554 19.147 25.0304 20.8696Z" fill="#ECECEC"/>
</svg>
