<svg width="50" height="51" viewBox="0 0 50 51" fill="none" xmlns="http://www.w3.org/2000/svg">
<g clip-path="url(#clip0_997_884)">
<path d="M17.8571 10.9041H32.1429V7.33269H17.8571V10.9041ZM8.03571 10.9041V46.6184H6.25C4.53869 46.6184 3.0692 46.0046 1.84152 44.7769C0.613839 43.5492 0 42.0797 0 40.3684V17.1541C0 15.4428 0.613839 13.9733 1.84152 12.7456C3.0692 11.518 4.53869 10.9041 6.25 10.9041H8.03571ZM39.2857 10.9041V46.6184H10.7143V10.9041H14.2857V6.43984C14.2857 5.69579 14.5461 5.06335 15.067 4.54252C15.5878 4.02168 16.2202 3.76127 16.9643 3.76127H33.0357C33.7798 3.76127 34.4122 4.02168 34.933 4.54252C35.4539 5.06335 35.7143 5.69579 35.7143 6.43984V10.9041H39.2857ZM50 17.1541V40.3684C50 42.0797 49.3862 43.5492 48.1585 44.7769C46.9308 46.0046 45.4613 46.6184 43.75 46.6184H41.9643V10.9041H43.75C45.4613 10.9041 46.9308 11.518 48.1585 12.7456C49.3862 13.9733 50 15.4428 50 17.1541Z" fill="black"/>
</g>
<defs>
<clipPath id="clip0_997_884">
<rect width="50" height="50" fill="white" transform="matrix(1 0 0 -1 0 50.1899)"/>
</clipPath>
</defs>
</svg>
