<svg width="43" height="51" viewBox="0 0 43 51" fill="none" xmlns="http://www.w3.org/2000/svg">
<g clip-path="url(#clip0_997_893)">
<path d="M37.5015 0.189942C37.9851 0.189942 38.4036 0.366653 38.757 0.720076C39.1105 1.0735 39.2872 1.49203 39.2872 1.97566V48.4042C39.2872 48.8879 39.1105 49.3064 38.757 49.6598C38.4036 50.0132 37.9851 50.1899 37.5015 50.1899H1.78718C1.30355 50.1899 0.885021 50.0132 0.531599 49.6598C0.178176 49.3064 0.00146484 48.8879 0.00146484 48.4042V1.97566C0.00146484 1.49203 0.178176 1.0735 0.531599 0.720076C0.885021 0.366653 1.30355 0.189942 1.78718 0.189942H37.5015ZM14.2872 8.22566V10.0114C14.2872 10.2718 14.3709 10.4857 14.5383 10.6531C14.7057 10.8205 14.9196 10.9042 15.18 10.9042H16.9658C17.2262 10.9042 17.4401 10.8205 17.6075 10.6531C17.7749 10.4857 17.8586 10.2718 17.8586 10.0114V8.22566C17.8586 7.96524 17.7749 7.75133 17.6075 7.58392C17.4401 7.4165 17.2262 7.3328 16.9658 7.3328H15.18C14.9196 7.3328 14.7057 7.4165 14.5383 7.58392C14.3709 7.75133 14.2872 7.96524 14.2872 8.22566ZM14.2872 15.3685V17.1542C14.2872 17.4146 14.3709 17.6286 14.5383 17.796C14.7057 17.9634 14.9196 18.0471 15.18 18.0471H16.9658C17.2262 18.0471 17.4401 17.9634 17.6075 17.796C17.7749 17.6286 17.8586 17.4146 17.8586 17.1542V15.3685C17.8586 15.1081 17.7749 14.8942 17.6075 14.7268C17.4401 14.5594 17.2262 14.4757 16.9658 14.4757H15.18C14.9196 14.4757 14.7057 14.5594 14.5383 14.7268C14.3709 14.8942 14.2872 15.1081 14.2872 15.3685ZM14.2872 22.5114V24.2971C14.2872 24.5575 14.3709 24.7714 14.5383 24.9388C14.7057 25.1062 14.9196 25.1899 15.18 25.1899H16.9658C17.2262 25.1899 17.4401 25.1062 17.6075 24.9388C17.7749 24.7714 17.8586 24.5575 17.8586 24.2971V22.5114C17.8586 22.251 17.7749 22.037 17.6075 21.8696C17.4401 21.7022 17.2262 21.6185 16.9658 21.6185H15.18C14.9196 21.6185 14.7057 21.7022 14.5383 21.8696C14.3709 22.037 14.2872 22.251 14.2872 22.5114ZM14.2872 29.6542V31.4399C14.2872 31.7004 14.3709 31.9143 14.5383 32.0817C14.7057 32.2491 14.9196 32.3328 15.18 32.3328H16.9658C17.2262 32.3328 17.4401 32.2491 17.6075 32.0817C17.7749 31.9143 17.8586 31.7004 17.8586 31.4399V29.6542C17.8586 29.3938 17.7749 29.1799 17.6075 29.0125C17.4401 28.8451 17.2262 28.7614 16.9658 28.7614H15.18C14.9196 28.7614 14.7057 28.8451 14.5383 29.0125C14.3709 29.1799 14.2872 29.3938 14.2872 29.6542ZM10.7158 38.5828V36.7971C10.7158 36.5367 10.632 36.3228 10.4646 36.1553C10.2972 35.9879 10.0833 35.9042 9.82289 35.9042H8.03718C7.77676 35.9042 7.56285 35.9879 7.39544 36.1553C7.22803 36.3228 7.14432 36.5367 7.14432 36.7971V38.5828C7.14432 38.8432 7.22803 39.0571 7.39544 39.2245C7.56285 39.392 7.77676 39.4757 8.03718 39.4757H9.82289C10.0833 39.4757 10.2972 39.392 10.4646 39.2245C10.632 39.0571 10.7158 38.8432 10.7158 38.5828ZM10.7158 31.4399V29.6542C10.7158 29.3938 10.632 29.1799 10.4646 29.0125C10.2972 28.8451 10.0833 28.7614 9.82289 28.7614H8.03718C7.77676 28.7614 7.56285 28.8451 7.39544 29.0125C7.22803 29.1799 7.14432 29.3938 7.14432 29.6542V31.4399C7.14432 31.7004 7.22803 31.9143 7.39544 32.0817C7.56285 32.2491 7.77676 32.3328 8.03718 32.3328H9.82289C10.0833 32.3328 10.2972 32.2491 10.4646 32.0817C10.632 31.9143 10.7158 31.7004 10.7158 31.4399ZM10.7158 24.2971V22.5114C10.7158 22.251 10.632 22.037 10.4646 21.8696C10.2972 21.7022 10.0833 21.6185 9.82289 21.6185H8.03718C7.77676 21.6185 7.56285 21.7022 7.39544 21.8696C7.22803 22.037 7.14432 22.251 7.14432 22.5114V24.2971C7.14432 24.5575 7.22803 24.7714 7.39544 24.9388C7.56285 25.1062 7.77676 25.1899 8.03718 25.1899H9.82289C10.0833 25.1899 10.2972 25.1062 10.4646 24.9388C10.632 24.7714 10.7158 24.5575 10.7158 24.2971ZM10.7158 17.1542V15.3685C10.7158 15.1081 10.632 14.8942 10.4646 14.7268C10.2972 14.5594 10.0833 14.4757 9.82289 14.4757H8.03718C7.77676 14.4757 7.56285 14.5594 7.39544 14.7268C7.22803 14.8942 7.14432 15.1081 7.14432 15.3685V17.1542C7.14432 17.4146 7.22803 17.6286 7.39544 17.796C7.56285 17.9634 7.77676 18.0471 8.03718 18.0471H9.82289C10.0833 18.0471 10.2972 17.9634 10.4646 17.796C10.632 17.6286 10.7158 17.4146 10.7158 17.1542ZM10.7158 10.0114V8.22566C10.7158 7.96524 10.632 7.75133 10.4646 7.58392C10.2972 7.4165 10.0833 7.3328 9.82289 7.3328H8.03718C7.77676 7.3328 7.56285 7.4165 7.39544 7.58392C7.22803 7.75133 7.14432 7.96524 7.14432 8.22566V10.0114C7.14432 10.2718 7.22803 10.4857 7.39544 10.6531C7.56285 10.8205 7.77676 10.9042 8.03718 10.9042H9.82289C10.0833 10.9042 10.2972 10.8205 10.4646 10.6531C10.632 10.4857 10.7158 10.2718 10.7158 10.0114ZM25.0015 45.7257V40.3685C25.0015 40.1081 24.9178 39.8942 24.7503 39.7268C24.5829 39.5594 24.369 39.4757 24.1086 39.4757H15.18C14.9196 39.4757 14.7057 39.5594 14.5383 39.7268C14.3709 39.8942 14.2872 40.1081 14.2872 40.3685V45.7257C14.2872 45.9861 14.3709 46.2 14.5383 46.3674C14.7057 46.5348 14.9196 46.6185 15.18 46.6185H24.1086C24.369 46.6185 24.5829 46.5348 24.7503 46.3674C24.9178 46.2 25.0015 45.9861 25.0015 45.7257ZM25.0015 31.4399V29.6542C25.0015 29.3938 24.9178 29.1799 24.7503 29.0125C24.5829 28.8451 24.369 28.7614 24.1086 28.7614H22.3229C22.0625 28.7614 21.8486 28.8451 21.6812 29.0125C21.5137 29.1799 21.43 29.3938 21.43 29.6542V31.4399C21.43 31.7004 21.5137 31.9143 21.6812 32.0817C21.8486 32.2491 22.0625 32.3328 22.3229 32.3328H24.1086C24.369 32.3328 24.5829 32.2491 24.7503 32.0817C24.9178 31.9143 25.0015 31.7004 25.0015 31.4399ZM25.0015 24.2971V22.5114C25.0015 22.251 24.9178 22.037 24.7503 21.8696C24.5829 21.7022 24.369 21.6185 24.1086 21.6185H22.3229C22.0625 21.6185 21.8486 21.7022 21.6812 21.8696C21.5137 22.037 21.43 22.251 21.43 22.5114V24.2971C21.43 24.5575 21.5137 24.7714 21.6812 24.9388C21.8486 25.1062 22.0625 25.1899 22.3229 25.1899H24.1086C24.369 25.1899 24.5829 25.1062 24.7503 24.9388C24.9178 24.7714 25.0015 24.5575 25.0015 24.2971ZM25.0015 17.1542V15.3685C25.0015 15.1081 24.9178 14.8942 24.7503 14.7268C24.5829 14.5594 24.369 14.4757 24.1086 14.4757H22.3229C22.0625 14.4757 21.8486 14.5594 21.6812 14.7268C21.5137 14.8942 21.43 15.1081 21.43 15.3685V17.1542C21.43 17.4146 21.5137 17.6286 21.6812 17.796C21.8486 17.9634 22.0625 18.0471 22.3229 18.0471H24.1086C24.369 18.0471 24.5829 17.9634 24.7503 17.796C24.9178 17.6286 25.0015 17.4146 25.0015 17.1542ZM25.0015 10.0114V8.22566C25.0015 7.96524 24.9178 7.75133 24.7503 7.58392C24.5829 7.4165 24.369 7.3328 24.1086 7.3328H22.3229C22.0625 7.3328 21.8486 7.4165 21.6812 7.58392C21.5137 7.75133 21.43 7.96524 21.43 8.22566V10.0114C21.43 10.2718 21.5137 10.4857 21.6812 10.6531C21.8486 10.8205 22.0625 10.9042 22.3229 10.9042H24.1086C24.369 10.9042 24.5829 10.8205 24.7503 10.6531C24.9178 10.4857 25.0015 10.2718 25.0015 10.0114ZM32.1443 38.5828V36.7971C32.1443 36.5367 32.0606 36.3228 31.8932 36.1553C31.7258 35.9879 31.5119 35.9042 31.2515 35.9042H29.4658C29.2053 35.9042 28.9914 35.9879 28.824 36.1553C28.6566 36.3228 28.5729 36.5367 28.5729 36.7971V38.5828C28.5729 38.8432 28.6566 39.0571 28.824 39.2245C28.9914 39.392 29.2053 39.4757 29.4658 39.4757H31.2515C31.5119 39.4757 31.7258 39.392 31.8932 39.2245C32.0606 39.0571 32.1443 38.8432 32.1443 38.5828ZM32.1443 31.4399V29.6542C32.1443 29.3938 32.0606 29.1799 31.8932 29.0125C31.7258 28.8451 31.5119 28.7614 31.2515 28.7614H29.4658C29.2053 28.7614 28.9914 28.8451 28.824 29.0125C28.6566 29.1799 28.5729 29.3938 28.5729 29.6542V31.4399C28.5729 31.7004 28.6566 31.9143 28.824 32.0817C28.9914 32.2491 29.2053 32.3328 29.4658 32.3328H31.2515C31.5119 32.3328 31.7258 32.2491 31.8932 32.0817C32.0606 31.9143 32.1443 31.7004 32.1443 31.4399ZM32.1443 24.2971V22.5114C32.1443 22.251 32.0606 22.037 31.8932 21.8696C31.7258 21.7022 31.5119 21.6185 31.2515 21.6185H29.4658C29.2053 21.6185 28.9914 21.7022 28.824 21.8696C28.6566 22.037 28.5729 22.251 28.5729 22.5114V24.2971C28.5729 24.5575 28.6566 24.7714 28.824 24.9388C28.9914 25.1062 29.2053 25.1899 29.4658 25.1899H31.2515C31.5119 25.1899 31.7258 25.1062 31.8932 24.9388C32.0606 24.7714 32.1443 24.5575 32.1443 24.2971ZM32.1443 17.1542V15.3685C32.1443 15.1081 32.0606 14.8942 31.8932 14.7268C31.7258 14.5594 31.5119 14.4757 31.2515 14.4757H29.4658C29.2053 14.4757 28.9914 14.5594 28.824 14.7268C28.6566 14.8942 28.5729 15.1081 28.5729 15.3685V17.1542C28.5729 17.4146 28.6566 17.6286 28.824 17.796C28.9914 17.9634 29.2053 18.0471 29.4658 18.0471H31.2515C31.5119 18.0471 31.7258 17.9634 31.8932 17.796C32.0606 17.6286 32.1443 17.4146 32.1443 17.1542ZM32.1443 10.0114V8.22566C32.1443 7.96524 32.0606 7.75133 31.8932 7.58392C31.7258 7.4165 31.5119 7.3328 31.2515 7.3328H29.4658C29.2053 7.3328 28.9914 7.4165 28.824 7.58392C28.6566 7.75133 28.5729 7.96524 28.5729 8.22566V10.0114C28.5729 10.2718 28.6566 10.4857 28.824 10.6531C28.9914 10.8205 29.2053 10.9042 29.4658 10.9042H31.2515C31.5119 10.9042 31.7258 10.8205 31.8932 10.6531C32.0606 10.4857 32.1443 10.2718 32.1443 10.0114Z" fill="black"/>
</g>
<defs>
<clipPath id="clip0_997_893">
<rect width="42.86" height="50" fill="white" transform="matrix(1 0 0 -1 0 50.1899)"/>
</clipPath>
</defs>
</svg>
