<svg width="54" height="51" viewBox="0 0 54 51" fill="none" xmlns="http://www.w3.org/2000/svg">
<g clip-path="url(#clip0_997_857)">
<path d="M16.5502 25.1899C13.5368 25.2829 11.0721 26.4734 9.15618 28.7614H5.41734C3.89204 28.7614 2.60856 28.3847 1.56689 27.6313C0.525228 26.878 0.00439453 25.7759 0.00439453 24.325C0.00439453 17.7588 1.15767 14.4757 3.46422 14.4757C3.57582 14.4757 3.9804 14.671 4.67794 15.0616C5.37549 15.4522 6.2823 15.8475 7.39837 16.2474C8.51444 16.6473 9.62121 16.8473 10.7187 16.8473C11.965 16.8473 13.2019 16.6334 14.4296 16.2056C14.3366 16.8938 14.2901 17.5077 14.2901 18.0471C14.2901 20.6326 15.0435 23.0136 16.5502 25.1899ZM46.433 42.9634C46.433 45.1955 45.754 46.958 44.3961 48.2508C43.0382 49.5436 41.2339 50.1899 38.9832 50.1899H14.597C12.3463 50.1899 10.542 49.5436 9.18408 48.2508C7.8262 46.958 7.14725 45.1955 7.14725 42.9634C7.14725 41.9775 7.1798 41.0149 7.24491 40.0755C7.31001 39.1362 7.44022 38.1224 7.63553 37.0342C7.83085 35.9461 8.07731 34.937 8.37493 34.0069C8.67255 33.0768 9.07247 32.17 9.57471 31.2865C10.0769 30.4029 10.6536 29.6496 11.3046 29.0264C11.9557 28.4033 12.7509 27.9057 13.6902 27.5337C14.6296 27.1617 15.6666 26.9757 16.8013 26.9757C16.9873 26.9757 17.3872 27.1756 18.001 27.5755C18.6149 27.9755 19.2938 28.4219 20.0379 28.9148C20.7819 29.4078 21.7771 29.8542 23.0234 30.2541C24.2696 30.654 25.5252 30.854 26.7901 30.854C28.055 30.854 29.3106 30.654 30.5568 30.2541C31.8031 29.8542 32.7983 29.4078 33.5423 28.9148C34.2864 28.4219 34.9653 27.9755 35.5792 27.5755C36.193 27.1756 36.5929 26.9757 36.7789 26.9757C37.9136 26.9757 38.9506 27.1617 39.89 27.5337C40.8294 27.9057 41.6246 28.4033 42.2756 29.0264C42.9266 29.6496 43.5033 30.4029 44.0055 31.2865C44.5077 32.17 44.9077 33.0768 45.2053 34.0069C45.5029 34.937 45.7494 35.9461 45.9447 37.0342C46.14 38.1224 46.2702 39.1362 46.3353 40.0755C46.4004 41.0149 46.433 41.9775 46.433 42.9634ZM15.7689 2.28258C15.7689 2.28258 16.1177 2.63135 16.8152 3.32889C17.5128 4.02644 17.8615 5.36107 17.8615 7.3328C17.8615 9.30453 17.164 10.9879 15.7689 12.383C14.3738 13.7781 12.6904 14.4757 10.7187 14.4757C8.74695 14.4757 7.06355 13.7781 5.66846 12.383C4.27337 10.9879 3.57582 9.30453 3.57582 7.3328C3.57582 5.36107 4.27337 3.67767 5.66846 2.28258C7.06355 0.887487 8.74695 0.189942 10.7187 0.189942C12.6904 0.189942 14.3738 0.887487 15.7689 2.28258ZM34.3654 10.4717C34.3654 10.4717 34.8886 10.9949 35.9349 12.0412C36.9812 13.0875 37.5044 15.0895 37.5044 18.0471C37.5044 21.0047 36.4581 23.5298 34.3654 25.6224C32.2728 27.7151 29.7477 28.7614 26.7901 28.7614C23.8325 28.7614 21.3074 27.7151 19.2148 25.6224C17.1221 23.5298 16.0758 21.0047 16.0758 18.0471C16.0758 15.0895 17.1221 12.5644 19.2148 10.4717C21.3074 8.37912 23.8325 7.3328 26.7901 7.3328C29.7477 7.3328 32.2728 8.37912 34.3654 10.4717ZM53.5758 24.325C53.5758 25.7759 53.055 26.878 52.0133 27.6313C50.9717 28.3847 49.6882 28.7614 48.1629 28.7614H44.424C42.5081 26.4734 40.0435 25.2829 37.0301 25.1899C38.5368 23.0136 39.2901 20.6326 39.2901 18.0471C39.2901 17.5077 39.2436 16.8938 39.1506 16.2056C40.3783 16.6334 41.6153 16.8473 42.8615 16.8473C43.959 16.8473 45.0658 16.6473 46.1818 16.2474C47.2979 15.8475 48.2047 15.4522 48.9023 15.0616C49.5998 14.671 50.0044 14.4757 50.116 14.4757C52.4225 14.4757 53.5758 17.7588 53.5758 24.325ZM47.9118 2.28258C47.9118 2.28258 48.2605 2.63135 48.9581 3.32889C49.6556 4.02644 50.0044 5.36107 50.0044 7.3328C50.0044 9.30453 49.3068 10.9879 47.9118 12.383C46.5167 13.7781 44.8333 14.4757 42.8615 14.4757C40.8898 14.4757 39.2064 13.7781 37.8113 12.383C36.4162 10.9879 35.7187 9.30453 35.7187 7.3328C35.7187 5.36107 36.4162 3.67767 37.8113 2.28258C39.2064 0.887487 40.8898 0.189942 42.8615 0.189942C44.8333 0.189942 46.5167 0.887487 47.9118 2.28258Z" fill="black"/>
</g>
<defs>
<clipPath id="clip0_997_857">
<rect width="53.58" height="50" fill="white" transform="matrix(1 0 0 -1 0 50.1899)"/>
</clipPath>
</defs>
</svg>
