<svg width="43" height="51" viewBox="0 0 43 51" fill="none" xmlns="http://www.w3.org/2000/svg">
<g clip-path="url(#clip0_997_813)">
<path d="M40.9613 13.6816C41.2217 13.9421 41.4821 14.2769 41.7425 14.6861H28.5729V1.51646C28.9821 1.77688 29.3169 2.0373 29.5774 2.29771L40.9613 13.6816ZM27.68 18.2575H42.8586V47.7218C42.8586 48.4659 42.5982 49.0983 42.0774 49.6191C41.5565 50.14 40.9241 50.4004 40.18 50.4004H2.68004C1.93599 50.4004 1.30355 50.14 0.782715 49.6191C0.261882 49.0983 0.00146484 48.4659 0.00146484 47.7218V3.07896C0.00146484 2.33491 0.261882 1.70247 0.782715 1.18164C1.30355 0.660808 1.93599 0.400391 2.68004 0.400391H25.0015V15.579C25.0015 16.323 25.2619 16.9555 25.7827 17.4763C26.3035 17.9971 26.936 18.2575 27.68 18.2575ZM32.1443 38.7932V37.0075C32.1443 36.7471 32.0606 36.5332 31.8932 36.3658C31.7258 36.1984 31.5119 36.1147 31.2515 36.1147H11.6086C11.3482 36.1147 11.1343 36.1984 10.9669 36.3658C10.7995 36.5332 10.7158 36.7471 10.7158 37.0075V38.7932C10.7158 39.0537 10.7995 39.2676 10.9669 39.435C11.1343 39.6024 11.3482 39.6861 11.6086 39.6861H31.2515C31.5119 39.6861 31.7258 39.6024 31.8932 39.435C32.0606 39.2676 32.1443 39.0537 32.1443 38.7932ZM32.1443 31.6504V29.8647C32.1443 29.6043 32.0606 29.3903 31.8932 29.2229C31.7258 29.0555 31.5119 28.9718 31.2515 28.9718H11.6086C11.3482 28.9718 11.1343 29.0555 10.9669 29.2229C10.7995 29.3903 10.7158 29.6043 10.7158 29.8647V31.6504C10.7158 31.9108 10.7995 32.1247 10.9669 32.2921C11.1343 32.4595 11.3482 32.5432 11.6086 32.5432H31.2515C31.5119 32.5432 31.7258 32.4595 31.8932 32.2921C32.0606 32.1247 32.1443 31.9108 32.1443 31.6504ZM32.1443 24.5075V22.7218C32.1443 22.4614 32.0606 22.2475 31.8932 22.0801C31.7258 21.9127 31.5119 21.829 31.2515 21.829H11.6086C11.3482 21.829 11.1343 21.9127 10.9669 22.0801C10.7995 22.2475 10.7158 22.4614 10.7158 22.7218V24.5075C10.7158 24.768 10.7995 24.9819 10.9669 25.1493C11.1343 25.3167 11.3482 25.4004 11.6086 25.4004H31.2515C31.5119 25.4004 31.7258 25.3167 31.8932 25.1493C32.0606 24.9819 32.1443 24.768 32.1443 24.5075Z" fill="black"/>
</g>
<defs>
<clipPath id="clip0_997_813">
<rect width="42.86" height="50" fill="white" transform="matrix(1 0 0 -1 0 50.4004)"/>
</clipPath>
</defs>
</svg>
