<svg width="65" height="50" viewBox="0 0 65 50" fill="none" xmlns="http://www.w3.org/2000/svg">
<g clip-path="url(#clip0_997_833)">
<path d="M49.5048 23.326L50.0071 32.143C50.0815 33.4265 49.3188 34.617 47.7191 35.7144C46.1194 36.8119 43.9338 37.6815 41.1622 38.3232C38.3906 38.965 35.3865 39.2859 32.1499 39.2859C28.9133 39.2859 25.9092 38.965 23.1377 38.3232C20.3661 37.6815 18.1804 36.8119 16.5807 35.7144C14.981 34.617 14.2184 33.4265 14.2928 32.143L14.795 23.326L30.8107 28.3763C31.2199 28.5065 31.6663 28.5716 32.1499 28.5716C32.6336 28.5716 33.08 28.5065 33.4892 28.3763L49.5048 23.326ZM63.679 13.4209C64.0882 13.5697 64.2928 13.858 64.2928 14.2859C64.2928 14.7137 64.0882 15.002 63.679 15.1508L32.429 24.9722C32.3546 24.9908 32.2615 25.0001 32.1499 25.0001C32.0383 25.0001 31.9453 24.9908 31.8709 24.9722L13.679 19.2245C12.8791 19.8569 12.2188 20.8939 11.6979 22.3355C11.1771 23.7771 10.8609 25.4373 10.7493 27.316C11.9211 27.9856 12.5071 28.9994 12.5071 30.3573C12.5071 31.6408 11.9676 32.6359 10.8888 33.3428L12.5071 45.4242C12.5443 45.6847 12.4699 45.9172 12.2839 46.1218C12.1165 46.3264 11.8932 46.4287 11.6142 46.4287H6.25708C5.97806 46.4287 5.75485 46.3264 5.58744 46.1218C5.40143 45.9172 5.32702 45.6847 5.36422 45.4242L6.98253 33.3428C5.90366 32.6359 5.36422 31.6408 5.36422 30.3573C5.36422 28.9994 5.96876 27.967 7.17784 27.2602C7.38245 23.4097 8.29391 20.3405 9.91221 18.0526L0.620919 15.1508C0.211693 15.002 0.00708008 14.7137 0.00708008 14.2859C0.00708008 13.858 0.211693 13.5697 0.620919 13.4209L31.8709 3.59947C31.9453 3.58087 32.0383 3.57157 32.1499 3.57157C32.2615 3.57157 32.3546 3.58087 32.429 3.59947L63.679 13.4209Z" fill="black"/>
</g>
<defs>
<clipPath id="clip0_997_833">
<rect width="64.3" height="50" fill="white" transform="matrix(1 0 0 -1 0 50)"/>
</clipPath>
</defs>
</svg>
