<svg width="40" height="51" viewBox="0 0 40 51" fill="none" xmlns="http://www.w3.org/2000/svg">
<g clip-path="url(#clip0_997_866)">
<path d="M38.4 4.65426C39.2185 5.62153 39.3301 6.99801 38.7349 8.78373C38.1396 10.5694 37.1352 12.1691 35.7215 13.5828L31.2293 18.075L35.6936 37.4947C35.7866 37.8481 35.675 38.155 35.3587 38.4154L31.7873 41.094C31.6571 41.2056 31.4804 41.2614 31.2572 41.2614C31.1828 41.2614 31.1177 41.2521 31.0619 41.2335C30.7828 41.1777 30.5875 41.0289 30.4759 40.7871L22.6913 26.613L15.4648 33.8395L16.9436 39.2525C17.0366 39.5687 16.9622 39.857 16.7203 40.1174L14.0418 42.796C13.8744 42.9634 13.6604 43.0471 13.4 43.0471H13.3442C13.0652 43.0099 12.842 42.889 12.6746 42.6844L7.40115 35.6531L0.369898 30.3797C0.165285 30.2495 0.0443776 30.0356 0.0071752 29.738C-0.011426 29.4962 0.0722794 29.2636 0.258291 29.0404L2.93686 26.334C3.10427 26.1665 3.31819 26.0828 3.5786 26.0828C3.69021 26.0828 3.76462 26.0921 3.80182 26.1107L9.21477 27.5895L16.4413 20.363L2.26722 12.5784C2.0068 12.4296 1.84869 12.2063 1.79289 11.9087C1.75569 11.6111 1.83939 11.36 2.04401 11.1554L5.61543 7.58395C5.87585 7.34214 6.15487 7.26773 6.45249 7.36074L25.0072 11.7971L29.4715 7.33284C30.8852 5.91915 32.4849 4.91468 34.2706 4.31944C36.0563 3.72421 37.4328 3.83581 38.4 4.65426Z" fill="black"/>
</g>
<defs>
<clipPath id="clip0_997_866">
<rect width="39.3" height="50" fill="white" transform="matrix(1 0 0 -1 0 50.1899)"/>
</clipPath>
</defs>
</svg>
