<svg width="50" height="51" viewBox="0 0 50 51" fill="none" xmlns="http://www.w3.org/2000/svg">
<g clip-path="url(#clip0_997_875)">
<path d="M17.8571 7.33283H32.1429V3.76141H17.8571V7.33283ZM50 25.19V38.5828C50 39.8105 49.5629 40.8615 48.6886 41.7357C47.8144 42.61 46.7634 43.0471 45.5357 43.0471H4.46429C3.23661 43.0471 2.18564 42.61 1.31138 41.7357C0.437128 40.8615 0 39.8105 0 38.5828V25.19H18.75V29.6543C18.75 30.1379 18.9267 30.5564 19.2801 30.9098C19.6336 31.2633 20.0521 31.44 20.5357 31.44H29.4643C29.9479 31.44 30.3664 31.2633 30.7199 30.9098C31.0733 30.5564 31.25 30.1379 31.25 29.6543V25.19H50ZM28.5714 25.19V28.7614H21.4286V25.19H28.5714ZM50 11.7971V22.5114H0V11.7971C0 10.5694 0.437128 9.51847 1.31138 8.64422C2.18564 7.76996 3.23661 7.33283 4.46429 7.33283H14.2857V2.86855C14.2857 2.1245 14.5461 1.49206 15.067 0.971227C15.5878 0.450393 16.2202 0.189977 16.9643 0.189977H33.0357C33.7798 0.189977 34.4122 0.450393 34.933 0.971227C35.4539 1.49206 35.7143 2.1245 35.7143 2.86855V7.33283H45.5357C46.7634 7.33283 47.8144 7.76996 48.6886 8.64422C49.5629 9.51847 50 10.5694 50 11.7971Z" fill="black"/>
</g>
<defs>
<clipPath id="clip0_997_875">
<rect width="50" height="50" fill="white" transform="matrix(1 0 0 -1 0 50.1899)"/>
</clipPath>
</defs>
</svg>
