<svg width="43" height="51" viewBox="0 0 43 51" fill="none" xmlns="http://www.w3.org/2000/svg">
<g clip-path="url(#clip0_997_803)">
<path d="M10.1298 43.2577L12.6689 40.7186L6.11196 34.1617L3.57289 36.7008V39.6862H7.14432V43.2577H10.1298ZM24.7224 17.3648C24.7224 16.9556 24.5178 16.751 24.1086 16.751C23.9226 16.751 23.7645 16.8161 23.6343 16.9463L8.51151 32.0691C8.3813 32.1993 8.3162 32.3574 8.3162 32.5434C8.3162 32.9526 8.52081 33.1572 8.93004 33.1572C9.11605 33.1572 9.27416 33.0921 9.40437 32.9619L24.5271 17.8391C24.6573 17.7089 24.7224 17.5508 24.7224 17.3648ZM23.2158 12.0077L34.8229 23.6148L11.6086 46.8291H0.00146484V35.222L23.2158 12.0077ZM42.2727 14.6862C42.2727 15.6721 41.9285 16.5092 41.2403 17.1974L36.6086 21.8291L25.0015 10.222L29.6332 5.61816C30.3028 4.91132 31.1399 4.5579 32.1443 4.5579C33.1302 4.5579 33.9765 4.91132 34.6834 5.61816L41.2403 12.1472C41.9285 12.8726 42.2727 13.719 42.2727 14.6862Z" fill="black"/>
</g>
<defs>
<clipPath id="clip0_997_803">
<rect width="42.86" height="50" fill="white" transform="matrix(1 0 0 -1 0 50.4004)"/>
</clipPath>
</defs>
</svg>
