<svg width="50" height="50" viewBox="0 0 50 50" fill="none" xmlns="http://www.w3.org/2000/svg">
<g clip-path="url(#clip0_997_823)">
<path d="M42.4944 37.3605C42.0852 34.4773 41.2714 32.0824 40.053 30.1758C38.8346 28.2692 37.1187 27.167 34.9051 26.8694C33.6589 28.2459 32.1754 29.3201 30.4548 30.0921C28.7342 30.864 26.9159 31.25 25 31.25C23.0841 31.25 21.2658 30.864 19.5452 30.0921C17.8246 29.3201 16.3411 28.2459 15.0949 26.8694C12.8813 27.167 11.1654 28.2692 9.94699 30.1758C8.72861 32.0824 7.91481 34.4773 7.50558 37.3605C9.47731 40.1507 11.9978 42.3596 15.067 43.9872C18.1362 45.6148 21.4472 46.4286 25 46.4286C28.5528 46.4286 31.8638 45.6148 34.933 43.9872C38.0022 42.3596 40.5227 40.1507 42.4944 37.3605ZM32.5753 25.4325C32.5753 25.4325 33.0985 24.9093 34.1448 23.863C35.1911 22.8167 35.7143 20.8147 35.7143 17.8571C35.7143 14.8996 34.668 12.3744 32.5753 10.2818C30.4827 8.18917 27.9576 7.14286 25 7.14286C22.0424 7.14286 19.5173 8.18917 17.4247 10.2818C15.332 12.3744 14.2857 14.8996 14.2857 17.8571C14.2857 20.8147 15.332 23.3398 17.4247 25.4325C19.5173 27.5251 22.0424 28.5714 25 28.5714C27.9576 28.5714 30.4827 27.5251 32.5753 25.4325ZM48.019 15.2902C48.019 15.2902 48.3491 16.0621 49.0095 17.606C49.6698 19.1499 50 21.6146 50 25C50 28.3854 49.3397 31.6174 48.019 34.6959C46.6983 37.7744 44.9265 40.4343 42.7037 42.6758C40.4808 44.9172 37.8255 46.6983 34.7377 48.019C31.6499 49.3397 28.404 50 25 50C21.6146 50 18.378 49.3397 15.2902 48.019C12.2024 46.6983 9.54241 44.9219 7.31027 42.6897C5.07812 40.4576 3.30171 37.7976 1.98103 34.7098C0.660342 31.622 0 28.3854 0 25C0 21.6146 0.660342 18.378 1.98103 15.2902C3.30171 12.2024 5.07812 9.54241 7.31027 7.31027C9.54241 5.07813 12.2024 3.30171 15.2902 1.98103C18.378 0.660343 21.6146 4.76837e-07 25 4.76837e-07C28.3854 4.76837e-07 31.622 0.660343 34.7098 1.98103C37.7976 3.30171 40.4576 5.07813 42.6897 7.31027C44.9219 9.54241 46.6983 12.2024 48.019 15.2902Z" fill="black"/>
</g>
<defs>
<clipPath id="clip0_997_823">
<rect width="50" height="50" fill="white" transform="matrix(1 0 0 -1 0 50)"/>
</clipPath>
</defs>
</svg>
