<svg width="58" height="51" viewBox="0 0 58 51" fill="none" xmlns="http://www.w3.org/2000/svg">
<g clip-path="url(#clip0_997_848)">
<path d="M26.7945 0.189942L53.5802 10.9042V14.4757H50.0088C50.0088 14.9593 49.8181 15.3778 49.4368 15.7312C49.0555 16.0847 48.6044 16.2614 48.0836 16.2614H5.50544C4.98461 16.2614 4.53353 16.0847 4.1522 15.7312C3.77088 15.3778 3.58022 14.9593 3.58022 14.4757H0.00878906V10.9042L26.7945 0.189942ZM7.15165 18.0471H14.2945V39.4757H17.8659V18.0471H25.0088V39.4757H28.5802V18.0471H35.7231V39.4757H39.2945V18.0471H46.4374V39.4757H48.0836C48.6044 39.4757 49.0555 39.6524 49.4368 40.0058C49.8181 40.3592 50.0088 40.7777 50.0088 41.2614V43.0471H3.58022V41.2614C3.58022 40.7777 3.77088 40.3592 4.1522 40.0058C4.53353 39.6524 4.98461 39.4757 5.50544 39.4757H7.15165V18.0471ZM51.655 44.8328C52.1758 44.8328 52.6269 45.0095 53.0082 45.3629C53.3896 45.7164 53.5802 46.1349 53.5802 46.6185V50.1899H0.00878906V46.6185C0.00878906 46.1349 0.199451 45.7164 0.580776 45.3629C0.9621 45.0095 1.41318 44.8328 1.93401 44.8328H51.655Z" fill="black"/>
</g>
<defs>
<clipPath id="clip0_997_848">
<rect width="57.16" height="50" fill="white" transform="matrix(1 0 0 -1 0 50.1899)"/>
</clipPath>
</defs>
</svg>
