<svg width="60" height="65" viewBox="0 0 60 65" fill="none" xmlns="http://www.w3.org/2000/svg">
<path d="M27.7797 41.529C24.022 52.765 52.0818 44.8889 52.0578 52.9952C56.4748 47.5747 59.1462 40.5087 59.1462 32.7812C59.1462 23.5261 55.3134 15.2187 49.2396 9.55176H49.2379C49.2379 9.55176 30.5126 10.177 30.5126 18.8758C30.5126 27.5746 55.45 20.6881 53.4004 29.3869C51.3507 38.0857 31.5374 30.293 27.7797 41.529Z" fill="#20CE55" fill-opacity="0.4"/>
<path d="M15.4817 48.5967C19.581 32.2864 3.52539 33.7362 3.86699 27.7557C4.2086 21.7753 15.8233 27.9369 17.0189 20.6879C18.2146 13.4389 9.03383 11.3041 9.03383 11.3041L9.03212 11.3022C3.96948 16.8641 0.854004 24.4375 0.854004 32.7811C0.854004 42.1903 4.81496 50.6173 11.0647 56.2897C13.1007 54.287 14.684 51.7681 15.4817 48.5967Z" fill="#20CE55" fill-opacity="0.4"/>
<path d="M18.9781 4.14404C15.2017 5.78232 11.8214 8.23793 9.0322 11.3025L9.03391 11.3043C9.03391 11.3043 18.2146 13.4391 17.019 20.6881C15.8234 27.9371 4.20868 21.7755 3.86707 27.7559C3.52547 33.7364 19.5811 32.2866 15.4818 48.5969C14.6841 51.7683 13.1008 54.2873 11.0648 56.2899C13.7567 58.7346 16.8755 60.6683 20.2848 61.9459V61.9441C30.5553 54.2674 40.2211 61.7484 40.2211 61.7484V61.7502C44.8345 59.918 48.8945 56.8789 52.0578 52.9952C52.0818 44.889 24.022 52.765 27.7797 41.5291C31.5374 30.2931 51.3507 38.0858 53.4004 29.387C55.45 20.6881 30.5126 27.5747 30.5126 18.8759C30.5126 10.177 49.2379 9.55181 49.2379 9.55181C46.8603 7.3318 44.1376 5.51592 41.1673 4.20928V4.2111C41.1673 4.2111 31.8722 11.1647 18.9798 4.14767L18.9781 4.14404Z" fill="#1AA5E2" fill-opacity="0.4"/>
<path d="M52.058 53.9009C52.0571 53.9009 52.0561 53.9009 52.0552 53.9009C51.5836 53.8993 51.2024 53.4924 51.2039 52.9919C51.2123 50.1463 45.6002 49.7925 40.1727 49.4504C39.47 49.4061 38.7651 49.3616 38.0672 49.3117C37.5966 49.278 37.2408 48.846 37.2726 48.3467C37.3044 47.8474 37.7099 47.4707 38.1821 47.5035C38.8754 47.5531 39.5757 47.5971 40.274 47.6412C43.3814 47.8371 46.3167 48.0221 48.6065 48.6459C51.4695 49.4259 52.9181 50.89 52.912 52.9973C52.9103 53.4969 52.5284 53.9009 52.058 53.9009Z" fill="#292929"/>
<path d="M35.5671 49.0917C35.5383 49.0917 35.5091 49.0901 35.4797 49.087C34.9444 49.0292 34.4579 48.9679 33.9923 48.8994C33.5252 48.8307 33.1989 48.3732 33.2637 47.8775C33.3284 47.3818 33.759 47.0357 34.2268 47.1044C34.6716 47.1698 35.1381 47.2287 35.6527 47.2842C36.1219 47.3349 36.4637 47.7795 36.4159 48.2773C36.371 48.7439 36 49.0917 35.5671 49.0917Z" fill="#292929"/>
<path d="M30.707 48.1187C30.616 48.1187 30.5234 48.1031 30.4324 48.0703C28.6639 47.4331 27.5304 46.5236 26.9669 45.2896C26.4494 44.1564 26.4519 42.7892 26.9748 41.226C29.1529 34.7131 36.0853 34.0718 42.2016 33.506C43.2789 33.4063 44.2966 33.3122 45.284 33.1888C45.7522 33.1308 46.1768 33.4859 46.2319 33.983C46.2871 34.4801 45.952 34.9302 45.4835 34.9888C44.4704 35.1152 43.4405 35.2104 42.3499 35.3113C36.4725 35.855 30.3951 36.4172 28.5843 41.832C28.2148 42.9366 28.1885 43.809 28.5038 44.4993C28.8577 45.2742 29.6682 45.8811 30.9815 46.3543C31.4282 46.5152 31.6673 47.0299 31.5154 47.5036C31.3948 47.881 31.0628 48.1187 30.707 48.1187Z" fill="#292929"/>
<path d="M50.5974 33.6811C50.2772 33.6811 49.97 33.489 49.8244 33.1612C49.6231 32.7085 49.8059 32.1686 50.2326 31.9551C51.5336 31.3041 52.2769 30.4183 52.5717 29.1669C52.802 28.1898 52.5656 27.6918 52.3676 27.4022C51.1918 25.6811 46.619 25.3346 42.5848 25.029C39.5848 24.8018 36.4826 24.5667 34.1052 23.8244C31.1546 22.9031 29.6583 21.2381 29.6583 18.8757C29.6583 9.40774 48.4123 8.67251 49.2108 8.64587L49.2376 8.64551C49.7092 8.64551 50.0925 9.05127 50.0925 9.55164C50.0925 10.0457 49.7208 10.4473 49.2576 10.4576C49.0504 10.4654 44.5166 10.6491 40.0595 11.8367C36.0937 12.8934 31.3662 14.9723 31.3662 18.8757C31.3662 22.3621 37.131 22.7989 42.7062 23.2213C47.5409 23.5876 52.1073 23.9337 53.7505 26.3386C54.3662 27.24 54.5271 28.3395 54.2285 29.6064C53.8116 31.3763 52.7121 32.7179 50.9607 33.5941C50.8434 33.6532 50.7194 33.6811 50.5974 33.6811Z" fill="#292929"/>
<path d="M11.0649 57.1958C10.8355 57.1958 10.6066 57.0983 10.4384 56.9057C10.1178 56.5387 10.1382 55.9653 10.4841 55.6251C12.5524 53.5907 13.9562 51.1474 14.6565 48.363C16.0969 42.6318 15.1756 38.7762 11.669 35.8617C11.2977 35.5531 11.2324 34.9835 11.5233 34.5895C11.8142 34.1956 12.351 34.1265 12.7224 34.435C16.7872 37.8135 17.9261 42.3877 16.3069 48.8301C15.5222 51.9504 13.9537 54.6837 11.6453 56.954C11.4809 57.1159 11.2726 57.1958 11.0649 57.1958Z" fill="#292929"/>
<path d="M9.32188 34.0821C9.18011 34.0821 9.03663 34.0446 8.90426 33.9658C8.55223 33.7559 8.20328 33.554 7.86218 33.3565C5.28833 31.8665 2.8571 30.4593 3.01458 27.7012C3.10972 26.0361 3.93163 24.9078 5.45777 24.3474C6.64759 23.9105 8.11002 23.8605 9.65836 23.8074C13.3997 23.6792 15.7053 23.3949 16.1776 20.5319C16.606 17.9344 15.5545 15.759 13.0522 14.0665C11.0588 12.7182 8.87198 12.1944 8.85011 12.1892C8.38997 12.0812 8.09891 11.5979 8.2002 11.1094C8.30149 10.621 8.75685 10.3121 9.21666 10.4192C9.31641 10.4424 11.6844 11.0043 13.9312 12.512C17.055 14.608 18.4136 17.4893 17.8602 20.8443C17.1145 25.3654 13.0109 25.5058 9.71353 25.6187C6.32169 25.7349 4.82425 25.9772 4.71955 27.8108C4.6321 29.342 6.16763 30.3112 8.68033 31.7657C9.02758 31.9667 9.38268 32.1724 9.74103 32.3859C10.1522 32.6311 10.2984 33.1834 10.0673 33.6196C9.91047 33.9156 9.62061 34.0821 9.32188 34.0821Z" fill="#292929"/>
<path opacity="0.25" d="M12.8205 32.7813C12.8205 29.5462 13.2914 26.4282 14.1601 23.4974C14.8824 21.0608 14.6991 21.1537 15.6363 18.8335C16.8958 15.7153 17.0751 15.3155 18.5752 13.3488C20.3945 10.9637 21.1567 10.4074 22.9136 9.03338C26.7546 6.02947 31.0264 3.60793 35.9833 2.51116C34.0515 2.08165 32.0514 1.85693 30 1.85693C25.2498 1.85693 20.7651 3.06353 16.8028 5.20254C16.3989 5.13802 13.1172 7.40003 11.4378 8.73641C9.33862 10.9637 9.47857 10.8152 7.32915 13.3488C3.60075 18.685 0.854126 25.4193 0.854126 32.7814C0.854126 49.8601 13.9036 63.7058 30.0002 63.7058C32.0516 63.7058 34.0517 63.4811 35.9835 63.0516C22.7562 60.1246 12.8205 47.6834 12.8205 32.7813Z" fill="#292929"/>
<path d="M20.2856 62.8502C20.0173 62.8502 19.7531 62.7163 19.5867 62.4658C19.3151 62.0566 19.4074 61.4914 19.793 61.2032C25.3853 57.0232 30.8079 57.2103 34.3719 58.1032C34.831 58.2182 35.1152 58.7063 35.0068 59.1932C34.8983 59.6804 34.4376 59.9817 33.9794 59.8668C29.2911 58.6923 24.8494 59.6403 20.7765 62.6847C20.6272 62.7964 20.4556 62.8502 20.2856 62.8502Z" fill="#292929"/>
<path d="M40.2203 62.6543C40.0459 62.6543 39.8702 62.5979 39.7185 62.4807C39.6942 62.462 38.4164 61.4914 36.3571 60.6489C35.9169 60.4689 35.6977 59.9444 35.8675 59.4774C36.0371 59.0104 36.5313 58.7779 36.9716 58.9578C39.2653 59.8961 40.6658 60.9705 40.7244 61.0158C41.1054 61.3107 41.1889 61.8776 40.911 62.2819C40.7437 62.5255 40.4837 62.6543 40.2203 62.6543Z" fill="#292929"/>
<path d="M30.5541 8.18148C27.2194 8.18148 23.1207 7.41979 18.59 4.95367L19.3695 3.34131C24.5089 6.13871 29.6513 7.01312 34.654 5.94081C38.3944 5.13888 40.654 3.48593 40.6764 3.46925L41.6592 4.9515C41.5584 5.02689 39.1432 6.80888 35.0805 7.69815C33.8083 7.97651 32.2839 8.18148 30.5541 8.18148Z" fill="#292929"/>
<path d="M30.0001 64.6116C26.5688 64.6116 23.2043 64.0021 20.0002 62.8001C16.5204 61.496 13.3272 59.5371 10.5094 56.978C3.83063 50.9164 0 42.0969 0 32.7811C0 24.4879 2.98942 16.6365 8.41776 10.6729C11.3387 7.46375 14.783 4.98495 18.6549 3.30517C22.2609 1.74282 26.0779 0.950684 30.0001 0.950684C33.9833 0.950684 37.8506 1.76547 41.4951 3.3724C44.528 4.70676 47.3233 6.5569 49.802 8.87151L48.6736 10.232C46.3358 8.04929 43.7003 6.30445 40.8402 5.0462C37.4041 3.53115 33.7571 2.76294 30.0001 2.76294C26.3005 2.76294 22.7008 3.50977 19.3009 4.98277C15.65 6.56668 12.4016 8.90467 9.64635 11.9317C4.52717 17.5557 1.70787 24.9602 1.70787 32.7811C1.70787 41.5664 5.32056 49.8839 11.6197 55.6011C14.2772 58.0146 17.2881 59.8617 20.569 61.0913C23.5901 62.2247 26.763 62.7993 29.9999 62.7993C33.417 62.7993 36.7551 62.1609 39.9211 60.9016C44.3383 59.1473 48.3115 56.2085 51.4115 52.4026C55.8486 46.9575 58.292 39.9892 58.292 32.7811C58.292 24.153 54.7869 15.9342 48.6753 10.2322L49.8033 8.87115C56.2835 14.9172 60 23.6321 60 32.7811C60 40.4243 57.4087 47.8136 52.7036 53.5876C49.4171 57.6225 45.2043 60.7384 40.5201 62.5985C37.1624 63.9344 33.6227 64.6116 30.0001 64.6116Z" fill="#292929"/>
</svg>
